<?xml version="1.0" encoding="UTF-8"?>
<svg width="151px" height="42px" viewBox="0 0 151 42" version="1.1" xmlns="http://www.w3.org/2000/svg" xmlns:xlink="http://www.w3.org/1999/xlink">
    <!-- Generator: Sketch 52.1 (67048) - http://www.bohemiancoding.com/sketch -->
    <title>Group</title>
    <desc>Created with Sketch.</desc>
    <g id="Login-&amp;-Sign-Up" stroke="none" stroke-width="1" fill="none" fill-rule="evenodd">
        <g id="Desktop-HD-Copy-4" transform="translate(-1057.000000, -280.000000)">
            <g id="Group" transform="translate(1057.000000, 280.000000)">
                <path d="M60.719885,37.4846525 L54.5414862,37.4846525 L54.5414862,13.2663903 L60.719885,13.2663903 L60.719885,15.6880403 C60.719885,15.0583231 60.9591912,14.4770684 61.4383845,13.9927384 C61.916997,13.5084084 62.4920289,13.2663903 63.1143994,13.2663903 L74.2737947,13.2663903 C74.9443749,13.2663903 75.518826,13.5084084 75.9980193,13.9927384 C76.4287124,14.4770684 76.6683091,15.0583231 76.6683091,15.6880403 L76.6683091,37.4843588 L70.4902006,37.4843588 L70.4902006,19.3206621 L63.1143994,19.3206621 C62.4920289,19.3206621 61.916997,19.562974 61.4383845,19.9988416 C60.9591912,20.4831716 60.719885,21.0644263 60.719885,21.7423121 L60.719885,37.4843588 L60.719885,37.4846525 Z" id="Path" fill="#000200"></path>
                <path d="M81.6342037,10.2634855 C81.4907361,10.2634855 81.3469781,10.2150231 81.2511395,10.1180984 C81.1076719,10.0211737 81.0597526,9.87578654 81.0597526,9.73069314 L81.0597526,4.79017468 C81.0597526,4.64478757 81.1076719,4.49940046 81.2511395,4.35430705 C81.3469781,4.25738231 81.4907361,4.20891994 81.6342037,4.20891994 L86.7110388,4.20891994 C86.8547968,4.20891994 86.9982644,4.25738231 87.094103,4.35430705 C87.1899417,4.49940046 87.237861,4.64478757 87.237861,4.79017468 L87.237861,10.2634855 C87.237861,11.1352208 87.094103,11.9587874 86.7589581,12.6851355 C86.4238132,13.4602397 85.9928297,14.1384192 85.4657171,14.719674 C84.891266,15.300635 84.2206858,15.7367963 83.5021863,16.0760329 C82.7357674,16.4149758 81.9217197,16.5600692 81.0597526,16.5600692 L81.0597526,15.7367963 C81.969639,15.204004 82.7357674,14.4288997 83.3107994,13.4602397 C83.8855409,12.4915797 84.1727665,11.425995 84.1727665,10.2634855 L81.6342037,10.2634855 Z" id="Path" fill="#000200"></path>
                <path d="M91.6295949,4.79017468 C91.6295949,4.40276943 91.8099836,4.20891994 92.1713085,4.20891994 L96.9109599,4.20891994 C97.2722847,4.20891994 97.4529471,4.40276943 97.4529471,4.79017468 L97.4529471,9.68223077 C97.4529471,10.069636 97.2722847,10.2634855 96.9109599,10.2634855 L92.1713085,10.2634855 C91.8099836,10.2634855 91.6295949,10.069636 91.6295949,9.68223077 L91.6295949,4.79017468 Z M97.4529471,37.4846525 L91.6295949,37.4846525 L91.6295949,13.2663903 L97.4529471,13.2663903 L97.4529471,37.4846525 Z" id="Shape" fill="#000200" fill-rule="nonzero"></path>
                <path d="M108.377255,37.4846525 L102.199147,37.4846525 L102.199147,4.20891994 L108.377255,4.20891994 L108.377255,15.688334 C108.377255,15.0586168 108.616852,14.4773621 109.095755,13.9930321 C109.574658,13.5087021 110.149399,13.266684 110.77177,13.266684 L121.931165,13.266684 C122.601745,13.266684 123.176487,13.5087021 123.65539,13.9930321 C124.086373,14.4773621 124.325679,15.0586168 124.325679,15.688334 L124.325679,37.4846525 L118.147571,37.4846525 L118.147571,19.3209558 L110.77177,19.3209558 C110.149399,19.3209558 109.574658,19.5632677 109.095755,19.9991353 C108.616852,20.4834653 108.377255,21.06472 108.377255,21.7426058 L108.377255,37.4846525 Z" id="Path" fill="#000200"></path>
                <path d="M144.665837,13.2663903 L150.843946,13.2663903 L150.843946,37.4846525 L144.665837,37.4846525 L144.665837,35.0630025 C144.665837,35.7408883 144.426241,36.322143 143.947338,36.7583044 C143.468435,37.2423407 142.893693,37.4846525 142.223404,37.4846525 L131.111928,37.4846525 C130.441347,37.4846525 129.866606,37.2423407 129.435622,36.7583044 C128.956429,36.322143 128.717413,35.7408883 128.717413,35.0630025 L128.717413,13.266684 L134.895522,13.266684 L134.895522,31.430087 L142.223404,31.430087 C142.893693,31.430087 143.468435,31.1880688 143.947338,30.7034451 C144.426241,30.2675775 144.665837,29.6863227 144.665837,29.0081432 L144.665837,13.2663903 Z" id="Path" fill="#000200"></path>
                <path d="M38.3694386,25.6363371 C38.3694386,21.7273328 38.2070937,7.10168293 37.491208,5.78115674 C36.4936147,3.93988035 33.7758626,2.87899499 31.6627654,4.37486685 C29.3992306,5.97706221 31.1048683,8.99817705 29.9530618,11.5032411 C28.9804447,13.6182564 26.186893,14.005368 24.2190059,12.3115347 C21.8886743,10.3057799 10.7127251,0.987493961 9.56033781,0.738720456 C6.91548126,0.168333034 4.78176421,2.27101252 5.13810977,4.94701654 C5.40413465,6.94425365 8.0919734,8.59197427 9.35123529,9.61908283 L18.8630769,17.4732178 C22.124786,19.999429 25.2084674,22.6871815 28.4359068,25.2862331 C29.4773536,26.124779 32.3438007,28.7617194 33.3608522,29.1635165 C36.052176,30.2264579 38.3700194,28.237151 38.3700194,25.6357496 L38.3694386,25.6363371 Z" id="Path" fill="#CB2026"></path>
                <path d="M2.19353959,12.9679795 C-0.281711581,13.8952262 -0.0322406489,16.5633 0.0458823789,19.4786788 C0.115002381,22.0651009 0.095253809,35.0356874 0.88258291,36.4214175 C1.88046664,38.1778113 4.90315985,39.4134549 6.80918747,37.610361 C9.2809536,35.2724187 7.05052664,32.7124307 8.49710954,30.4517345 C10.0174592,28.075316 12.5667675,28.324677 14.4626304,30.0643292 L23.9808613,38.160776 C25.5976304,39.6337384 27.3645468,41.4885255 29.5342759,41.152226 C31.6366276,40.8265001 33.5403319,38.2450712 32.0304374,35.6980064 C31.2518209,34.3845293 11.5592999,18.1508098 8.23050382,15.4377982 C6.85884932,14.3202265 4.92377968,11.9446892 2.19353959,12.9679795 Z" id="Path" fill="#000200"></path>
                <path d="M16.9744745,0.217676539 C15.2644805,0.529891693 14.7367871,2.09625427 15.9086325,2.98208767 C16.7348779,3.60739912 19.0835059,3.11631376 20.3058844,3.15860819 C22.6225661,3.23820396 27.6532245,5.0548086 28.0728816,5.00135314 C28.7350396,4.91705798 31.8849369,2.66135489 25.3289918,0.858848394 C22.7497702,0.149535508 19.7340471,-0.285744698 16.9741841,0.217382827 L16.9744745,0.217676539 Z" id="Path" fill="#CB2026"></path>
                <path d="M10.1545375,36.7215905 C8.86100603,37.5671854 9.18482452,38.859809 10.2675109,39.4522248 C10.9886242,39.8466791 12.6106209,40.4763962 13.6070526,40.7583591 C15.2801632,41.2321155 20.1905876,42.1878522 21.7449164,41.3792649 C22.8871389,40.7853806 22.7950757,39.0222314 21.6182932,38.5969374 C21.054878,38.3933954 18.2468053,38.5006 17.2158137,38.362262 C13.2364764,37.8297633 11.3766256,35.9226956 10.1545375,36.7215905 Z" id="Path" fill="#000200"></path>
            </g>
        </g>
    </g>
</svg>