<?xml version="1.0" encoding="UTF-8"?>
<svg width="21px" height="24px" viewBox="0 0 21 24" version="1.1" xmlns="http://www.w3.org/2000/svg" xmlns:xlink="http://www.w3.org/1999/xlink">
    <!-- Generator: Sketch 52.1 (67048) - http://www.bohemiancoding.com/sketch -->
    <title>Shape</title>
    <desc>Created with Sketch.</desc>
    <g id="Music" stroke="none" stroke-width="1" fill="none" fill-rule="evenodd">
        <g id="2" transform="translate(-981.000000, -41.000000)" fill="#9E9E9E" fill-rule="nonzero">
            <path d="M1002,41 L987.211268,44.6024341 L987.211268,58.8031261 C986.53281,58.4127055 985.760788,58.2090027 984.975559,58.2132204 C982.783347,58.2132204 981,59.7366663 981,61.6066102 C981,63.4765541 982.783347,65 984.975559,65 C987.167771,65 988.951118,63.4765541 988.951118,61.6066102 L988.951118,51.0112158 L1000.26015,48.2564133 L1000.26015,53.2877938 C999.579981,52.9033754 998.808065,52.7056329 998.024441,52.7150698 C995.846727,52.7150698 994.051781,54.2270612 994.051781,56.0998688 C994.051781,57.9726763 995.846727,59.4932586 998.024441,59.4932586 C1000.20215,59.4932586 1002,57.9698127 1002,56.0998688 L1002,41 Z M984.906977,63.3892617 C983.65068,63.3892617 982.627907,62.6289107 982.627907,61.6979866 C982.627907,60.7670625 983.65068,60.0067114 984.906977,60.0067114 C986.163273,60.0067114 987.186047,60.7670625 987.186047,61.6979866 C987.186047,62.6289107 986.160317,63.3892617 984.906977,63.3892617 Z M988.976744,49.2147651 L988.976744,45.9645145 L1000.37209,43.2550336 L1000.37209,46.4968346 L988.976744,49.2147651 Z M998.093023,57.9127517 C996.836727,57.9127517 995.813953,57.150446 995.813953,56.2171288 C995.813953,55.2838115 996.839683,54.5302013 998.093023,54.5302013 C999.346364,54.5302013 1000.37209,55.292507 1000.37209,56.2258243 C1000.37209,57.1591415 999.34932,57.9127517 998.093023,57.9127517 Z" id="Shape"></path>
        </g>
    </g>
</svg>