<?xml version="1.0" encoding="UTF-8"?>
<svg width="222px" height="206px" viewBox="0 0 222 206" version="1.1" xmlns="http://www.w3.org/2000/svg" xmlns:xlink="http://www.w3.org/1999/xlink">
    <!-- Generator: Sketch 52.1 (67048) - http://www.bohemiancoding.com/sketch -->
    <title>Group 4 Copy 2</title>
    <desc>Created with Sketch.</desc>
    <defs>
        <rect id="path-1" x="0.909035885" y="-1.42108547e-14" width="220.339096" height="182.870426" rx="15"></rect>
        <linearGradient x1="41.3337236%" y1="14.8830308%" x2="103.767959%" y2="82.4935806%" id="linearGradient-3">
            <stop stop-color="#CA2026" offset="0%"></stop>
            <stop stop-color="#FF0036" offset="100%"></stop>
        </linearGradient>
    </defs>
    <g id="Page-1" stroke="none" stroke-width="1" fill="none" fill-rule="evenodd">
        <g id="1-copy" transform="translate(-972.000000, -315.000000)">
            <g id="Group-4-Copy-2" transform="translate(972.000000, 315.000000)">
                <mask id="mask-2" fill="white">
                    <use xlink:href="#path-1"></use>
                </mask>
                <use id="Rectangle-Copy-5" fill="#FFFFFF" fill-rule="nonzero" xlink:href="#path-1"></use>
                <circle id="Oval" fill="url(#linearGradient-3)" fill-rule="nonzero" opacity="0.100000001" mask="url(#mask-2)" cx="167" cy="177" r="154"></circle>
                <path d="M136.42734,55 L91.7601991,65.9965855 L91.7601991,109.344811 C89.7110213,108.153035 87.3792451,107.531223 85.0075784,107.544098 C78.3863317,107.544098 73,112.194483 73,117.902567 C73,123.610652 78.3863317,128.261036 85.0075784,128.261036 C91.6288252,128.261036 97.0151569,123.610652 97.0151569,117.902567 L97.0151569,85.5596685 L131.172382,77.1505149 L131.172382,92.5090211 C129.118037,91.3355674 126.786581,90.7319497 124.419761,90.7607563 C117.842306,90.7607563 112.420941,95.3761753 112.420941,101.093001 C112.420941,106.809827 117.842306,111.45147 124.419761,111.45147 C130.997217,111.45147 136.42734,106.801086 136.42734,101.093001 L136.42734,55 Z M84.8004353,123.344188 C81.0059806,123.344188 77.9168481,121.023184 77.9168481,118.181497 C77.9168481,115.339811 81.0059806,113.018807 84.8004353,113.018807 C88.5948901,113.018807 91.6840226,115.339811 91.6840226,118.181497 C91.6840226,121.023184 88.5859619,123.344188 84.8004353,123.344188 Z M97.0925555,80.0759251 L97.0925555,70.1543949 L131.510492,61.8835873 L131.510492,71.7793249 L97.0925555,80.0759251 Z M124.626905,106.626905 C120.83245,106.626905 117.743317,104.299934 117.743317,101.450942 C117.743317,98.6019513 120.841378,96.3015237 124.626905,96.3015237 C128.412431,96.3015237 131.510492,98.6284947 131.510492,101.477486 C131.510492,104.326477 128.421359,106.626905 124.626905,106.626905 Z" id="Shape" fill="#CB2026" fill-rule="nonzero" mask="url(#mask-2)"></path>
                <path d="M88.7296558,205 L85.8312183,196.65332 L85.7765308,196.65332 C85.8540051,197.89291 85.8927417,199.055008 85.8927417,200.139648 L85.8927417,205 L84.4093433,205 L84.4093433,195.005859 L86.7130542,195.005859 L89.4884448,202.956055 L89.5294605,202.956055 L92.3868823,195.005859 L94.6974292,195.005859 L94.6974292,205 L93.1251636,205 L93.1251636,200.057617 C93.1251636,199.56087 93.137696,198.913741 93.1627613,198.116211 C93.1878265,197.318681 93.2094734,196.835613 93.2277027,196.666992 L93.1730152,196.666992 L90.1720386,205 L88.7296558,205 Z M107.496583,195.005859 L107.496583,201.472656 C107.496583,202.210941 107.338218,202.856931 107.021485,203.410645 C106.704752,203.964358 106.246748,204.390461 105.647461,204.688965 C105.048175,204.987469 104.331548,205.136719 103.497559,205.136719 C102.25797,205.136719 101.294112,204.808597 100.605958,204.152344 C99.917803,203.49609 99.573731,202.593756 99.573731,201.445312 L99.573731,195.005859 L101.214356,195.005859 L101.214356,201.329102 C101.214356,202.153975 101.40576,202.762368 101.788575,203.154297 C102.171389,203.546226 102.759274,203.742188 103.552247,203.742188 C105.092619,203.742188 105.862793,202.933276 105.862793,201.31543 L105.862793,195.005859 L107.496583,195.005859 Z M118.149251,202.286133 C118.149251,203.174809 117.827966,203.872068 117.185384,204.37793 C116.542803,204.883792 115.656419,205.136719 114.526205,205.136719 C113.395991,205.136719 112.47087,204.961265 111.750814,204.610352 L111.750814,203.06543 C112.206545,203.279623 112.690753,203.448242 113.203451,203.571289 C113.716149,203.694337 114.19352,203.755859 114.63558,203.755859 C115.282718,203.755859 115.76009,203.632814 116.067709,203.386719 C116.375327,203.140624 116.529134,202.810223 116.529134,202.395508 C116.529134,202.021808 116.38786,201.705079 116.105306,201.445312 C115.822753,201.185546 115.239425,200.877931 114.355306,200.522461 C113.443843,200.153318 112.801272,199.731773 112.427572,199.257812 C112.053872,198.783852 111.867025,198.214196 111.867025,197.548828 C111.867025,196.71484 112.163246,196.058596 112.755697,195.580078 C113.348148,195.10156 114.143387,194.862305 115.141439,194.862305 C116.098475,194.862305 117.050939,195.071938 117.998861,195.491211 L117.47933,196.824219 C116.590653,196.450519 115.797692,196.263672 115.100423,196.263672 C114.571775,196.263672 114.170737,196.378742 113.897298,196.608887 C113.623859,196.839031 113.487142,197.143227 113.487142,197.521484 C113.487142,197.781251 113.541829,198.003417 113.651205,198.187988 C113.76058,198.37256 113.940591,198.546874 114.191244,198.710938 C114.441896,198.875001 114.893063,199.09147 115.544759,199.360352 C116.278487,199.665692 116.816242,199.95052 117.158041,200.214844 C117.499839,200.479168 117.750488,200.777668 117.909994,201.110352 C118.0695,201.443036 118.149251,201.834959 118.149251,202.286133 Z M122.417155,205 L122.417155,195.005859 L124.050944,195.005859 L124.050944,205 L122.417155,205 Z M133.274902,196.263672 C132.336095,196.263672 131.597821,196.596351 131.060058,197.261719 C130.522295,197.927087 130.253417,198.845372 130.253417,200.016602 C130.253417,201.242519 130.512041,202.169919 131.029296,202.798828 C131.546552,203.427738 132.295079,203.742188 133.274902,203.742188 C133.698732,203.742188 134.108884,203.700033 134.505371,203.615723 C134.901857,203.531412 135.314288,203.423178 135.742675,203.291016 L135.742675,204.692383 C134.958817,204.988608 134.070154,205.136719 133.07666,205.136719 C131.613762,205.136719 130.490401,204.693527 129.706542,203.807129 C128.922684,202.920731 128.530761,201.652678 128.530761,200.00293 C128.530761,198.963862 128.721026,198.054691 129.101562,197.275391 C129.482098,196.49609 130.032385,195.899091 130.752441,195.484375 C131.472497,195.069659 132.317866,194.862305 133.288574,194.862305 C134.309412,194.862305 135.252762,195.076495 136.118652,195.504883 L135.530761,196.865234 C135.19352,196.705728 134.836915,196.565593 134.460937,196.444824 C134.084959,196.324055 133.689617,196.263672 133.274902,196.263672 Z" id="MUSIC" fill="#FFFFFF" fill-rule="nonzero"></path>
            </g>
        </g>
    </g>
</svg>