<?xml version="1.0" encoding="UTF-8"?>
<svg width="223px" height="62px" viewBox="0 0 223 62" version="1.1" xmlns="http://www.w3.org/2000/svg" xmlns:xlink="http://www.w3.org/1999/xlink">
    <!-- Generator: Sketch 52.1 (67048) - http://www.bohemiancoding.com/sketch -->
    <title>Logo_svg (1)</title>
    <desc>Created with Sketch.</desc>
    <g id="Page-1" stroke="none" stroke-width="1" fill="none" fill-rule="evenodd">
        <g id="1-copy" transform="translate(-608.000000, -184.000000)">
            <g id="Logo_svg-(1)" transform="translate(608.000000, 184.000000)">
                <g id="_2427949637376">
                    <path d="M89.6748499,55.3760564 L80.5543563,55.3760564 L80.5543563,19.6252882 L89.6748499,19.6252882 L89.6748499,23.2001049 C89.6748499,22.2705225 90.0281114,21.4124798 90.735492,20.6975165 C91.4420152,19.9825531 92.2908719,19.6252882 93.2096092,19.6252882 L109.683002,19.6252882 C110.672906,19.6252882 111.520906,19.9825531 112.228286,20.6975165 C112.864071,21.4124798 113.217762,22.2705225 113.217762,23.2001049 L113.217762,55.3756228 L104.097697,55.3756228 L104.097697,28.5625467 L93.2096092,28.5625467 C92.2908719,28.5625467 91.4420152,28.9202452 90.735492,29.5636688 C90.0281114,30.2786321 89.6748499,31.1366748 89.6748499,32.1373634 L89.6748499,55.3756228 L89.6748499,55.3760564 Z" id="Path" fill="#FFFFFF"></path>
                    <path d="M120.548368,15.1924289 C120.336582,15.1924289 120.124368,15.1208892 119.982892,14.9778098 C119.771107,14.8347304 119.700369,14.6201113 119.700369,14.4059258 L119.700369,7.11277955 C119.700369,6.89816048 119.771107,6.68354141 119.982892,6.46935591 C120.124368,6.32627653 120.336582,6.25473684 120.548368,6.25473684 L128.042744,6.25473684 C128.254958,6.25473684 128.466743,6.32627653 128.608219,6.46935591 C128.749695,6.68354141 128.820433,6.89816048 128.820433,7.11277955 L128.820433,15.1924289 C128.820433,16.4792762 128.608219,17.6950173 128.113482,18.7672455 C127.618744,19.911447 126.98253,20.9125691 126.204411,21.7706118 C125.356412,22.628221 124.366508,23.2720782 123.305866,23.772856 C122.174486,24.2732003 120.972796,24.4873858 119.700369,24.4873858 L119.700369,23.2720782 C121.043534,22.4855752 122.174486,21.3413737 123.023342,19.911447 C123.87177,18.4815203 124.29577,16.9085143 124.29577,15.1924289 L120.548368,15.1924289 Z" id="Path" fill="#FFFFFF"></path>
                    <path d="M135.303469,7.11277955 C135.303469,6.5408956 135.569757,6.25473684 136.103142,6.25473684 L143.09977,6.25473684 C143.633154,6.25473684 143.899846,6.5408956 143.899846,7.11277955 L143.899846,14.3343862 C143.899846,14.9062701 143.633154,15.1924289 143.09977,15.1924289 L136.103142,15.1924289 C135.569757,15.1924289 135.303469,14.9062701 135.303469,14.3343862 L135.303469,7.11277955 Z M143.899846,55.3760564 L135.303469,55.3760564 L135.303469,19.6252882 L143.899846,19.6252882 L143.899846,55.3760564 Z" id="Shape" fill="#FFFFFF" fill-rule="nonzero"></path>
                    <path d="M160.026206,55.3760564 L150.906141,55.3760564 L150.906141,6.25473684 L160.026206,6.25473684 L160.026206,23.2005385 C160.026206,22.2709561 160.379896,21.4129134 161.086848,20.69795 C161.7938,19.9829867 162.642228,19.6257218 163.560965,19.6257218 L180.034358,19.6257218 C181.024262,19.6257218 181.87269,19.9829867 182.579642,20.69795 C183.215856,21.4129134 183.569118,22.2709561 183.569118,23.2005385 L183.569118,55.3760564 L174.449053,55.3760564 L174.449053,28.5629803 L163.560965,28.5629803 C162.642228,28.5629803 161.7938,28.9206787 161.086848,29.5641024 C160.379896,30.2790657 160.026206,31.1371084 160.026206,32.1377969 L160.026206,55.3760564 Z" id="Path" fill="#FFFFFF"></path>
                    <path d="M213.595065,19.6252882 L222.71513,19.6252882 L222.71513,55.3760564 L213.595065,55.3760564 L213.595065,51.8012397 C213.595065,52.8019282 213.241375,53.6599709 212.534423,54.3038281 C211.827471,55.0183579 210.979043,55.3760564 209.989568,55.3760564 L193.586913,55.3760564 C192.597009,55.3760564 191.748581,55.0183579 191.112367,54.3038281 C190.404986,53.6599709 190.052153,52.8019282 190.052153,51.8012397 L190.052153,19.6257218 L199.172218,19.6257218 L199.172218,46.4383643 L209.989568,46.4383643 C210.979043,46.4383643 211.827471,46.0810995 212.534423,45.3657025 C213.241375,44.7222789 213.595065,43.8642362 213.595065,42.8631141 L213.595065,19.6252882 Z" id="Path" fill="#FFFFFF"></path>
                    <path d="M56.6813337,37.8856859 C56.6813337,32.1152511 56.4416817,10.525006 55.384898,8.57565784 C53.9122603,5.85758316 49.9003406,4.2915143 46.7810067,6.49970608 C43.439598,8.86485162 45.9574442,13.3245926 44.2571585,17.0225442 C42.8213903,20.1447098 38.6975759,20.7161601 35.7925997,18.2157396 C32.3525865,15.2548635 15.8547566,1.49929849 14.1536135,1.13206141 C10.2493015,0.290060928 7.09952868,3.39401636 7.6255626,7.34430801 C8.018266,10.2926104 11.986028,12.7249599 13.8449384,14.2411678 L27.8862284,25.835367 C32.7011322,29.5645359 37.2532334,33.5321705 42.0175487,37.3688658 C43.5549225,38.6067193 47.7863445,42.4993456 49.2877062,43.0924747 C53.2606127,44.6615786 56.6821911,41.7249826 56.6821911,37.8848188 L56.6813337,37.8856859 Z" id="Path" fill="#CB2026"></path>
                    <path d="M3.27881614,19.1847772 C-0.375126063,20.5535699 -0.006859448,24.4921551 0.108465022,28.7958095 C0.210499311,32.6138611 0.181346657,51.7609173 1.34359438,53.8065189 C2.81666084,56.3992907 7.27873176,58.223336 10.0923916,55.561626 C13.7411892,52.1103779 10.4486542,48.3313479 12.5840861,44.9941297 C14.8284117,41.4860834 18.5916764,41.8541877 21.3903312,44.4222458 L35.441053,56.3741434 C37.8277122,58.5485165 40.4360173,61.2865355 43.6389508,60.7900934 C46.7424223,60.30926 49.5526524,56.4985791 47.3237605,52.7386264 C46.1743742,50.799684 17.1044623,26.8356219 12.1905252,22.8307 C10.1657019,21.1809513 7.30917056,17.6742058 3.27881614,19.1847772 Z" id="Path" fill="#FFFFFF"></path>
                    <path d="M25.0982915,0.36290134 C22.5740147,0.823790378 21.7950386,3.1360399 23.5249056,4.44369873 C24.7446012,5.36677753 28.2116235,4.64184199 30.016087,4.70427663 C33.4359506,4.82177515 40.8621605,7.50342962 41.4816544,7.42451918 C42.4591257,7.30008347 47.108974,3.97023605 37.4311503,1.30939313 C33.623728,0.262312199 29.1719462,-0.380244296 25.0978628,0.362467766 L25.0982915,0.36290134 Z" id="Path" fill="#CB2026"></path>
                    <path d="M15.0307654,54.2496314 C13.1212666,55.4978906 13.5992844,57.4060493 15.1975358,58.2805678 C16.2620363,58.8628575 18.6564124,59.7924399 20.1273353,60.2086709 C22.5971653,60.9080255 29.845887,62.3188749 32.1403723,61.125246 C33.8265104,60.2485597 33.6906076,57.6458156 31.9534524,57.0180007 C31.1217443,56.717534 26.9764941,56.8757884 25.4545541,56.6715751 C19.5802943,55.8855057 16.8348003,53.0703104 15.0307654,54.2496314 Z" id="Path" fill="#FFFFFF"></path>
                </g>
            </g>
        </g>
    </g>
</svg>