<?xml version="1.0" encoding="UTF-8"?>
<svg width="221px" height="206px" viewBox="0 0 221 206" version="1.1" xmlns="http://www.w3.org/2000/svg" xmlns:xlink="http://www.w3.org/1999/xlink">
    <!-- Generator: Sketch 52.1 (67048) - http://www.bohemiancoding.com/sketch -->
    <title>Group 4 Copy</title>
    <desc>Created with Sketch.</desc>
    <defs>
        <rect id="path-1" x="0" y="0" width="220.339096" height="182.870426" rx="15"></rect>
        <linearGradient x1="41.3337236%" y1="14.8830308%" x2="103.767959%" y2="82.4935806%" id="linearGradient-3">
            <stop stop-color="#CA2026" offset="0%"></stop>
            <stop stop-color="#FF0036" offset="100%"></stop>
        </linearGradient>
    </defs>
    <g id="Page-1" stroke="none" stroke-width="1" fill="none" fill-rule="evenodd">
        <g id="1-copy" transform="translate(-973.000000, -536.000000)">
            <g id="Group-4-Copy" transform="translate(973.000000, 536.000000)">
                <mask id="mask-2" fill="white">
                    <use xlink:href="#path-1"></use>
                </mask>
                <use id="Rectangle-Copy-5" fill="#FFFFFF" fill-rule="nonzero" xlink:href="#path-1"></use>
                <circle id="Oval" fill="url(#linearGradient-3)" fill-rule="nonzero" opacity="0.100000001" mask="url(#mask-2)" cx="166" cy="177" r="154"></circle>
                <path d="M34.3636094,199.989258 C34.3636094,201.616219 33.9568752,202.880855 33.1433946,203.783203 C32.329914,204.685551 31.17807,205.136719 29.6878282,205.136719 C28.1793571,205.136719 27.0206773,204.688969 26.211754,203.793457 C25.4028307,202.897945 24.9983751,201.625334 24.9983751,199.975586 C24.9983751,198.325838 25.4051093,197.058924 26.2185899,196.174805 C27.0320705,195.290686 28.193029,194.848633 29.7015001,194.848633 C31.1871846,194.848633 32.3356106,195.297522 33.1468126,196.195312 C33.9580145,197.093103 34.3636094,198.357739 34.3636094,199.989258 Z M26.7347032,199.989258 C26.7347032,201.219733 26.9830731,202.152829 27.4798204,202.788574 C27.9765677,203.42432 28.7125629,203.742188 29.6878282,203.742188 C30.6585362,203.742188 31.3911135,203.427738 31.8855821,202.798828 C32.3800507,202.169919 32.6272813,201.233405 32.6272813,199.989258 C32.6272813,198.76334 32.3823293,197.833662 31.892418,197.200195 C31.4025067,196.566729 30.672208,196.25 29.7015001,196.25 C28.7216775,196.25 27.9822643,196.566729 27.4832383,197.200195 C26.9842124,197.833662 26.7347032,198.76334 26.7347032,199.989258 Z M40.4772159,199.654297 L41.6119815,199.654297 C42.373053,199.654297 42.9244798,199.513022 43.2662784,199.230469 C43.608077,198.947915 43.7789737,198.528649 43.7789737,197.972656 C43.7789737,197.407549 43.5944052,197.001954 43.2252627,196.755859 C42.8561203,196.509764 42.3001363,196.386719 41.557294,196.386719 L40.4772159,196.386719 L40.4772159,199.654297 Z M40.4772159,201.007812 L40.4772159,205 L38.8434268,205 L38.8434268,195.005859 L41.666669,195.005859 C42.956389,195.005859 43.911132,195.247393 44.5309268,195.730469 C45.1507216,196.213544 45.4606143,196.942703 45.4606143,197.917969 C45.4606143,199.162116 44.8134854,200.0485 43.5192081,200.577148 L46.3424502,205 L44.4830752,205 L42.0904971,201.007812 L40.4772159,201.007812 Z M50.125002,205 L50.125002,195.005859 L51.7587911,195.005859 L51.7587911,205 L50.125002,205 Z M60.8186866,199.579102 L64.4964209,199.579102 L64.4964209,204.59668 C63.8948554,204.792644 63.3172245,204.93164 62.7635108,205.013672 C62.2097971,205.095704 61.6116585,205.136719 60.9690772,205.136719 C59.4560488,205.136719 58.2893938,204.688969 57.4690772,203.793457 C56.6487606,202.897945 56.2386084,201.634448 56.2386084,200.00293 C56.2386084,198.394198 56.7011689,197.135258 57.6263037,196.226074 C58.5514386,195.31689 59.8251889,194.862305 61.4475928,194.862305 C62.4912178,194.862305 63.4801402,195.062824 64.4143897,195.463867 L63.8401709,196.824219 C63.028969,196.450519 62.2177792,196.263672 61.4065772,196.263672 C60.3401656,196.263672 59.4970751,196.598629 58.8772803,197.268555 C58.2574855,197.93848 57.9475928,198.854486 57.9475928,200.016602 C57.9475928,201.237962 58.2267241,202.166501 58.7849952,202.802246 C59.3432662,203.437991 60.1464808,203.755859 61.1946631,203.755859 C61.7233116,203.755859 62.2884101,203.689779 62.8899756,203.557617 L62.8899756,200.980469 L60.8186866,200.980469 L60.8186866,199.579102 Z M69.229168,205 L69.229168,195.005859 L70.8629571,195.005859 L70.8629571,205 L69.229168,205 Z M84.1611338,205 L82.1582041,205 L77.2431651,197.036133 L77.1884776,197.036133 L77.2226572,197.480469 C77.2864597,198.328129 77.3183604,199.102861 77.3183604,199.804688 L77.3183604,205 L75.8349619,205 L75.8349619,195.005859 L77.8173838,195.005859 L82.718751,202.928711 L82.7597666,202.928711 C82.750652,202.823893 82.732423,202.442223 82.7050791,201.783691 C82.6777352,201.125159 82.6640635,200.61133 82.6640635,200.242188 L82.6640635,195.005859 L84.1611338,195.005859 L84.1611338,205 Z M95.333334,205 L94.3352871,202.224609 L90.5139981,202.224609 L89.536459,205 L87.8138027,205 L91.5530606,194.964844 L93.3304043,194.964844 L97.0696621,205 L95.333334,205 Z M93.9046231,200.816406 L92.9680996,198.095703 C92.8997399,197.913411 92.8051771,197.626304 92.6844082,197.234375 C92.5636394,196.842446 92.4804696,196.555339 92.4348965,196.373047 C92.311849,196.933597 92.1318378,197.546546 91.8948574,198.211914 L90.9925137,200.816406 L93.9046231,200.816406 Z M100.722331,205 L100.722331,195.005859 L102.35612,195.005859 L102.35612,203.598633 L106.587565,203.598633 L106.587565,205 L100.722331,205 Z M120.86556,196.263672 C119.926753,196.263672 119.188479,196.596351 118.650716,197.261719 C118.112953,197.927087 117.844075,198.845372 117.844075,200.016602 C117.844075,201.242519 118.102699,202.169919 118.619954,202.798828 C119.137209,203.427738 119.885737,203.742188 120.86556,203.742188 C121.28939,203.742188 121.699542,203.700033 122.096028,203.615723 C122.492515,203.531412 122.904945,203.423178 123.333333,203.291016 L123.333333,204.692383 C122.549475,204.988608 121.660812,205.136719 120.667317,205.136719 C119.204419,205.136719 118.081058,204.693527 117.2972,203.807129 C116.513342,202.920731 116.121419,201.652678 116.121419,200.00293 C116.121419,198.963862 116.311684,198.054691 116.69222,197.275391 C117.072755,196.49609 117.623043,195.899091 118.343099,195.484375 C119.063154,195.069659 119.908523,194.862305 120.879231,194.862305 C121.90007,194.862305 122.84342,195.076495 123.70931,195.504883 L123.121419,196.865234 C122.784178,196.705728 122.427573,196.565593 122.051595,196.444824 C121.675616,196.324055 121.280275,196.263672 120.86556,196.263672 Z M136.41276,199.989258 C136.41276,201.616219 136.006026,202.880855 135.192545,203.783203 C134.379064,204.685551 133.22722,205.136719 131.736978,205.136719 C130.228507,205.136719 129.069828,204.688969 128.260904,203.793457 C127.451981,202.897945 127.047525,201.625334 127.047525,199.975586 C127.047525,198.325838 127.45426,197.058924 128.26774,196.174805 C129.081221,195.290686 130.242179,194.848633 131.75065,194.848633 C133.236335,194.848633 134.384761,195.297522 135.195963,196.195312 C136.007165,197.093103 136.41276,198.357739 136.41276,199.989258 Z M128.783853,199.989258 C128.783853,201.219733 129.032223,202.152829 129.528971,202.788574 C130.025718,203.42432 130.761713,203.742188 131.736978,203.742188 C132.707686,203.742188 133.440264,203.427738 133.934732,202.798828 C134.429201,202.169919 134.676432,201.233405 134.676432,199.989258 C134.676432,198.76334 134.43148,197.833662 133.941568,197.200195 C133.451657,196.566729 132.721358,196.25 131.75065,196.25 C130.770828,196.25 130.031415,196.566729 129.532389,197.200195 C129.033363,197.833662 128.783853,198.76334 128.783853,199.989258 Z M149.218749,205 L147.215819,205 L142.30078,197.036133 L142.246093,197.036133 L142.280272,197.480469 C142.344075,198.328129 142.375976,199.102861 142.375976,199.804688 L142.375976,205 L140.892577,205 L140.892577,195.005859 L142.874999,195.005859 L147.776366,202.928711 L147.817382,202.928711 C147.808267,202.823893 147.790038,202.442223 147.762694,201.783691 C147.73535,201.125159 147.721679,200.61133 147.721679,200.242188 L147.721679,195.005859 L149.218749,195.005859 L149.218749,205 Z M157.642902,205 L156.009113,205 L156.009113,196.407227 L153.06966,196.407227 L153.06966,195.005859 L160.582355,195.005859 L160.582355,196.407227 L157.642902,196.407227 L157.642902,205 Z M170.100259,205 L164.446938,205 L164.446938,195.005859 L170.100259,195.005859 L170.100259,196.386719 L166.080727,196.386719 L166.080727,199.107422 L169.847329,199.107422 L169.847329,200.474609 L166.080727,200.474609 L166.080727,203.612305 L170.100259,203.612305 L170.100259,205 Z M182.91992,205 L180.91699,205 L176.001951,197.036133 L175.947264,197.036133 L175.981443,197.480469 C176.045246,198.328129 176.077146,199.102861 176.077146,199.804688 L176.077146,205 L174.593748,205 L174.593748,195.005859 L176.57617,195.005859 L181.477537,202.928711 L181.518553,202.928711 C181.509438,202.823893 181.491209,202.442223 181.463865,201.783691 C181.436521,201.125159 181.42285,200.61133 181.42285,200.242188 L181.42285,195.005859 L182.91992,195.005859 L182.91992,205 Z M191.344073,205 L189.710284,205 L189.710284,196.407227 L186.770831,196.407227 L186.770831,195.005859 L194.283526,195.005859 L194.283526,196.407227 L191.344073,196.407227 L191.344073,205 Z" id="ORIGINALCONTENT" fill="#FFFFFF" fill-rule="nonzero"></path>
                <path d="M122.678947,89.5157895 C124.115789,90.4736842 124.115789,92.5263158 122.678947,93.4842105 L105.710526,104.089474 C104.136842,105.047368 102.152632,103.952632 102.152632,102.105263 L102.152632,80.8947368 C102.152632,79.0473684 104.136842,77.9526316 105.710526,78.9105263 L122.678947,89.5157895 Z M110.5,59 C128.426316,59 143,73.5736842 143,91.5 C143,109.426316 128.426316,124 110.5,124 C92.5736842,124 78,109.426316 78,91.5 C78,73.5736842 92.5736842,59 110.5,59 Z M110.5,118.431579 C125.351451,118.431579 137.431579,106.351451 137.431579,91.5000001 C137.431579,76.6485488 125.351451,64.5684211 110.5,64.5684211 C95.6485488,64.5684211 83.5684211,76.6485488 83.5684211,91.5000001 C83.5684211,106.351451 95.6485488,118.431579 110.5,118.431579 Z" id="Combined-Shape" fill="#CB2026"></path>
            </g>
        </g>
    </g>
</svg>