<?xml version="1.0" encoding="UTF-8"?>
<svg width="25px" height="25px" viewBox="0 0 25 25" version="1.1" xmlns="http://www.w3.org/2000/svg" xmlns:xlink="http://www.w3.org/1999/xlink">
    <!-- Generator: Sketch 52.1 (67048) - http://www.bohemiancoding.com/sketch -->
    <title>Combined Shape</title>
    <desc>Created with Sketch.</desc>
    <g id="Original" stroke="none" stroke-width="1" fill="none" fill-rule="evenodd">
        <g id="8" transform="translate(-1081.000000, -41.000000)" fill="#D50000">
            <path d="M1098.18421,52.7368421 C1098.73684,53.1052632 1098.73684,53.8947368 1098.18421,54.2631579 L1091.65789,58.3421053 C1091.05263,58.7105263 1090.28947,58.2894737 1090.28947,57.5789474 L1090.28947,49.4210526 C1090.28947,48.7105263 1091.05263,48.2894737 1091.65789,48.6578947 L1098.18421,52.7368421 Z M1093.5,41 C1100.39474,41 1106,46.6052632 1106,53.5 C1106,60.3947368 1100.39474,66 1093.5,66 C1086.60526,66 1081,60.3947368 1081,53.5 C1081,46.6052632 1086.60526,41 1093.5,41 Z M1093.5,63.8582996 C1099.2121,63.8582996 1103.8583,59.2120966 1103.8583,53.5 C1103.8583,47.7879034 1099.2121,43.1417004 1093.5,43.1417004 C1087.7879,43.1417004 1083.1417,47.7879034 1083.1417,53.5 C1083.1417,59.2120966 1087.7879,63.8582996 1093.5,63.8582996 Z" id="Combined-Shape"></path>
        </g>
    </g>
</svg>