<?xml version="1.0" encoding="UTF-8"?>
<svg width="36px" height="20px" viewBox="0 0 36 20" version="1.1" xmlns="http://www.w3.org/2000/svg" xmlns:xlink="http://www.w3.org/1999/xlink">
    <!-- Generator: Sketch 52.1 (67048) - http://www.bohemiancoding.com/sketch -->
    <title>Combined Shape</title>
    <desc>Created with Sketch.</desc>
    <g id="Music" stroke="none" stroke-width="1" fill="none" fill-rule="evenodd">
        <g id="2" transform="translate(-1025.000000, -42.000000)" fill="#9E9E9E" fill-rule="nonzero">
            <path d="M1032.0272,55.0773655 C1029.5564,55.0773655 1027.5464,53.0842274 1027.5464,50.634155 C1027.5464,48.1840827 1029.5568,46.1913413 1032.0272,46.1913413 C1034.4976,46.1913413 1036.5076,48.1840827 1036.5076,50.634155 C1036.5076,53.0842274 1034.498,55.0773655 1032.0272,55.0773655 Z M1032.0272,48.0607263 C1030.596,48.0607263 1029.432,49.2153581 1029.432,50.634155 C1029.432,52.052952 1030.596,53.2075838 1032.0272,53.2075838 C1033.4584,53.2075838 1034.6224,52.0533487 1034.6224,50.634155 C1034.6224,49.2149614 1033.4584,48.0607263 1032.0272,48.0607263 Z M1026.8856,61.6156516 L1026.8856,62 L1025,62 L1025,61.6156516 C1025,58.6757234 1027.412,56.2839577 1030.3768,56.2843544 L1033.6772,56.2843544 C1033.8452,56.2843544 1034.0112,56.2926839 1034.1752,56.308153 C1034.6456,56.3529738 1035.0136,56.7619142 1035.0136,57.2386808 C1035.0136,57.5000694 1034.9068,57.7412292 1034.7136,57.917736 C1034.5152,58.0986058 1034.244,58.1894374 1033.9708,58.1660353 C1033.874,58.1577058 1033.776,58.1537394 1033.6772,58.1537394 L1030.3768,58.1537394 C1028.4516,58.1537394 1026.8856,59.7066021 1026.8856,61.6156516 Z M1037.2336,61.9996034 L1035.3488,61.9996034 L1035.3488,59.697876 C1035.3488,58.4024354 1035.7772,57.1740277 1036.588,56.1455288 C1037.7056,54.7279218 1039.3796,53.9148008 1041.1808,53.9148008 L1044.8204,53.9148008 C1045.954,53.9148008 1047.0564,54.2420324 1048.0084,54.8611943 C1049.664,55.9376872 1050.6524,57.7459889 1050.6524,59.697876 L1050.6524,61.9996034 L1048.7668,61.9996034 L1048.7668,59.697876 C1048.7668,57.5401305 1046.996,55.7845824 1044.82,55.7845824 L1041.1804,55.7845824 C1039.004,55.7845824 1037.2336,57.5401305 1037.2336,59.697876 L1037.2336,61.9996034 Z M1055.6232,56.2839577 C1058.588,56.2839577 1061,58.6757234 1061,61.6156516 L1061,62 L1059.1144,62 L1059.1144,61.6156516 C1059.1144,59.7066021 1057.5484,58.1537394 1055.6232,58.1537394 L1052.3228,58.1537394 C1052.2584,58.1537394 1052.1944,58.1553259 1052.1308,58.1592924 C1051.8732,58.1739682 1051.6256,58.0855165 1051.4364,57.9090098 C1051.2484,57.7332963 1051.1408,57.4853936 1051.1408,57.228368 C1051.1408,56.7305793 1051.5392,56.3192591 1052.0476,56.291494 C1052.1388,56.2867342 1052.2304,56.2839577 1052.3228,56.2839577 L1055.6232,56.2839577 Z M1053.9728,55.0773655 C1051.5024,55.0773655 1049.492,53.0842274 1049.492,50.634155 C1049.492,48.1840827 1051.502,46.1913413 1053.9728,46.1913413 C1056.4436,46.1913413 1058.4536,48.1840827 1058.4536,50.634155 C1058.4536,53.0842274 1056.4436,55.0773655 1053.9728,55.0773655 Z M1053.9728,48.0607263 C1052.542,48.0607263 1051.3776,49.2153581 1051.3776,50.634155 C1051.3776,52.052952 1052.542,53.2075838 1053.9728,53.2075838 C1055.4036,53.2075838 1056.568,52.0533487 1056.568,50.634155 C1056.568,49.2149614 1055.404,48.0607263 1053.9728,48.0607263 Z M1043,53.1782322 C1039.892,53.1782322 1037.3636,50.6706463 1037.3636,47.5891161 C1037.3636,44.5071892 1039.892,42 1043,42 C1046.108,42 1048.6364,44.5071892 1048.6364,47.5891161 C1048.6364,50.671043 1046.1076,53.1782322 1043,53.1782322 Z M1043,43.869385 C1040.9316,43.869385 1039.2488,45.5380679 1039.2488,47.5891161 C1039.2488,49.6397676 1040.9316,51.3084505 1043,51.3084505 C1045.068,51.3084505 1046.7508,49.6397676 1046.7508,47.5891161 C1046.7508,45.5380679 1045.068,43.869385 1043,43.869385 Z" id="Combined-Shape"></path>
        </g>
    </g>
</svg>