<?xml version="1.0" encoding="UTF-8"?>
<svg width="222px" height="206px" viewBox="0 0 222 206" version="1.1" xmlns="http://www.w3.org/2000/svg" xmlns:xlink="http://www.w3.org/1999/xlink">
    <!-- Generator: Sketch 52.1 (67048) - http://www.bohemiancoding.com/sketch -->
    <title>Group 4 Copy 3</title>
    <desc>Created with Sketch.</desc>
    <defs>
        <rect id="path-1" x="0.909035885" y="-1.42108547e-14" width="220.339096" height="182.870426" rx="15"></rect>
        <linearGradient x1="41.3337236%" y1="14.8830308%" x2="103.767959%" y2="82.4935806%" id="linearGradient-3">
            <stop stop-color="#CA2026" offset="0%"></stop>
            <stop stop-color="#FF0036" offset="100%"></stop>
        </linearGradient>
    </defs>
    <g id="Page-1" stroke="none" stroke-width="1" fill="none" fill-rule="evenodd">
        <g id="1-copy" transform="translate(-738.000000, -315.000000)">
            <g id="Group-4-Copy-3" transform="translate(738.000000, 315.000000)">
                <mask id="mask-2" fill="white">
                    <use xlink:href="#path-1"></use>
                </mask>
                <use id="Rectangle-Copy-5" fill="#FFFFFF" fill-rule="nonzero" xlink:href="#path-1"></use>
                <circle id="Oval" fill="url(#linearGradient-3)" fill-rule="nonzero" opacity="0.100000001" mask="url(#mask-2)" cx="167" cy="177" r="154"></circle>
                <path d="M72.2877617,205 L70.6539727,205 L70.6539727,196.407227 L67.7145196,196.407227 L67.7145196,195.005859 L75.2272149,195.005859 L75.2272149,196.407227 L72.2877617,196.407227 L72.2877617,205 Z M84.7861338,195.005859 L86.4814463,195.005859 L82.9814463,205 L81.2587901,205 L77.7724619,195.005859 L79.4541026,195.005859 L81.5390635,201.219727 C81.648439,201.515952 81.7646488,201.897621 81.8876963,202.364746 C82.0107438,202.831871 82.0904956,203.179361 82.1269541,203.407227 C82.1861992,203.060871 82.2773441,202.659833 82.4003916,202.204102 C82.5234391,201.74837 82.6236985,201.411134 82.7011729,201.192383 L84.7861338,195.005859 Z M101.866862,202.286133 C101.866862,203.174809 101.545576,203.872068 100.902995,204.37793 C100.260414,204.883792 99.3740294,205.136719 98.2438154,205.136719 C97.1136015,205.136719 96.1884805,204.961265 95.4684248,204.610352 L95.4684248,203.06543 C95.9241563,203.279623 96.4083637,203.448242 96.9210615,203.571289 C97.4337594,203.694337 97.9111309,203.755859 98.3531904,203.755859 C99.0003291,203.755859 99.4777006,203.632814 99.7853193,203.386719 C100.092938,203.140624 100.246745,202.810223 100.246745,202.395508 C100.246745,202.021808 100.10547,201.705079 99.822917,201.445312 C99.5403635,201.185546 98.957036,200.877931 98.072917,200.522461 C97.1614541,200.153318 96.5188824,199.731773 96.1451826,199.257812 C95.7714828,198.783852 95.5846357,198.214196 95.5846357,197.548828 C95.5846357,196.71484 95.8808567,196.058596 96.4733076,195.580078 C97.0657585,195.10156 97.8609979,194.862305 98.8590498,194.862305 C99.8160858,194.862305 100.76855,195.071938 101.716472,195.491211 L101.19694,196.824219 C100.308264,196.450519 99.5153033,196.263672 98.8180342,196.263672 C98.2893857,196.263672 97.8883481,196.378742 97.6149092,196.608887 C97.3414703,196.839031 97.2047529,197.143227 97.2047529,197.521484 C97.2047529,197.781251 97.2594399,198.003417 97.3688154,198.187988 C97.478191,198.37256 97.6582022,198.546874 97.9088545,198.710938 C98.1595068,198.875001 98.6106742,199.09147 99.2623701,199.360352 C99.9960978,199.665692 100.533853,199.95052 100.875651,200.214844 C101.21745,200.479168 101.468098,200.777668 101.627604,201.110352 C101.787111,201.443036 101.866862,201.834959 101.866862,202.286133 Z M114.016602,205 L112.375977,205 L112.375977,200.495117 L107.768555,200.495117 L107.768555,205 L106.134766,205 L106.134766,195.005859 L107.768555,195.005859 L107.768555,199.09375 L112.375977,199.09375 L112.375977,195.005859 L114.016602,195.005859 L114.016602,205 Z M127.854817,199.989258 C127.854817,201.616219 127.448083,202.880855 126.634603,203.783203 C125.821122,204.685551 124.669278,205.136719 123.179036,205.136719 C121.670565,205.136719 120.511885,204.688969 119.702962,203.793457 C118.894039,202.897945 118.489583,201.625334 118.489583,199.975586 C118.489583,198.325838 118.896317,197.058924 119.709798,196.174805 C120.523278,195.290686 121.684237,194.848633 123.192708,194.848633 C124.678393,194.848633 125.826819,195.297522 126.63802,196.195312 C127.449222,197.093103 127.854817,198.357739 127.854817,199.989258 Z M120.225911,199.989258 C120.225911,201.219733 120.474281,202.152829 120.971028,202.788574 C121.467776,203.42432 122.203771,203.742188 123.179036,203.742188 C124.149744,203.742188 124.882321,203.427738 125.37679,202.798828 C125.871259,202.169919 126.118489,201.233405 126.118489,199.989258 C126.118489,198.76334 125.873537,197.833662 125.383626,197.200195 C124.893715,196.566729 124.163416,196.25 123.192708,196.25 C122.212885,196.25 121.473472,196.566729 120.974446,197.200195 C120.47542,197.833662 120.225911,198.76334 120.225911,199.989258 Z M141.419596,205 L139.642252,205 L137.946939,199.039062 C137.874022,198.779296 137.782877,198.404462 137.673502,197.914551 C137.564126,197.424639 137.498046,197.083985 137.47526,196.892578 C137.429687,197.184246 137.355631,197.562498 137.253092,198.027344 C137.150552,198.49219 137.065104,198.838541 136.996744,199.066406 L135.342447,205 L133.565103,205 L132.273111,199.996094 L130.960611,195.005859 L132.62858,195.005859 L134.057291,200.830078 C134.280599,201.764328 134.440103,202.589189 134.535807,203.304688 C134.585937,202.917316 134.661132,202.484377 134.761393,202.005859 C134.861653,201.527341 134.952798,201.139975 135.03483,200.84375 L136.661783,195.005859 L138.2819,195.005859 L139.949869,200.871094 C140.109375,201.413414 140.277993,202.224604 140.455728,203.304688 C140.524088,202.652992 140.688149,201.823573 140.947916,200.816406 L142.369791,195.005859 L144.024088,195.005859 L141.419596,205 Z M153.535155,202.286133 C153.535155,203.174809 153.213869,203.872068 152.571288,204.37793 C151.928707,204.883792 151.042322,205.136719 149.912108,205.136719 C148.781894,205.136719 147.856773,204.961265 147.136718,204.610352 L147.136718,203.06543 C147.592449,203.279623 148.076657,203.448242 148.589354,203.571289 C149.102052,203.694337 149.579424,203.755859 150.021483,203.755859 C150.668622,203.755859 151.145994,203.632814 151.453612,203.386719 C151.761231,203.140624 151.915038,202.810223 151.915038,202.395508 C151.915038,202.021808 151.773763,201.705079 151.49121,201.445312 C151.208656,201.185546 150.625329,200.877931 149.74121,200.522461 C148.829747,200.153318 148.187175,199.731773 147.813476,199.257812 C147.439776,198.783852 147.252929,198.214196 147.252929,197.548828 C147.252929,196.71484 147.54915,196.058596 148.141601,195.580078 C148.734051,195.10156 149.529291,194.862305 150.527343,194.862305 C151.484379,194.862305 152.436843,195.071938 153.384765,195.491211 L152.865233,196.824219 C151.976557,196.450519 151.183596,196.263672 150.486327,196.263672 C149.957679,196.263672 149.556641,196.378742 149.283202,196.608887 C149.009763,196.839031 148.873046,197.143227 148.873046,197.521484 C148.873046,197.781251 148.927733,198.003417 149.037108,198.187988 C149.146484,198.37256 149.326495,198.546874 149.577147,198.710938 C149.8278,198.875001 150.278967,199.09147 150.930663,199.360352 C151.664391,199.665692 152.202146,199.95052 152.543944,200.214844 C152.885743,200.479168 153.136391,200.777668 153.295897,201.110352 C153.455403,201.443036 153.535155,201.834959 153.535155,202.286133 Z" id="TVSHOWS" fill="#FFFFFF" fill-rule="nonzero"></path>
                <path d="M90.1177524,74.4033652 C86.611732,76.3316764 84.0698672,79.0488422 82.4045076,81.240105 C81.790954,82.0289596 80.4761964,81.5030565 80.7391479,80.4512504 C81.966255,74.4033652 86.26113,72.8256561 89.5918493,72.5627045 C90.6436554,72.5627045 90.9942575,73.8774622 90.1177524,74.4033652 Z M147.090584,78.8735412 L147.090584,104.204538 C147.090584,112.443686 140.429145,119.192776 132.189997,119.368077 L132.189997,120.507533 C132.189997,121.822291 131.138191,122.874097 129.823433,122.874097 L128.333374,122.874097 C127.018617,122.874097 125.966811,121.822291 125.966811,120.507533 L125.966811,119.368077 L92.3966656,119.368077 L92.3966656,121.033436 C92.3966656,122.348194 91.3448595,123.4 90.0301019,123.4 L88.5400432,123.4 C87.2252856,123.4 86.1734795,122.348194 86.1734795,121.033436 L86.1734795,119.280426 C78.5478851,118.491571 72.5,112.005434 72.5,104.204538 L72.5,78.8735412 C72.5,70.5467428 79.3367397,63.7100031 87.6635381,63.7100031 L97.6556962,63.7100031 C99.4087064,62.482896 101.337018,61.6063909 103.352979,61.0804878 L98.1815993,55.9091077 C97.3927447,55.1202532 97.3927447,53.8054955 98.1815993,53.0166409 C98.9704538,52.2277864 100.285211,52.2277864 101.074066,53.0166409 L107.910806,59.8533807 L114.835196,53.0166409 C115.624051,52.2277864 116.938808,52.2277864 117.727663,53.0166409 C118.516517,53.8054955 118.516517,55.1202532 117.727663,55.9091077 L112.556283,61.0804878 C114.659895,61.6063909 116.588206,62.5705465 118.253566,63.7100031 L131.927045,63.7100031 C140.253844,63.7100031 147.090584,70.5467428 147.090584,78.8735412 Z M134.118308,80.5389009 C134.118308,74.5786663 129.20988,69.6702377 123.249645,69.6702377 L89.1535968,69.6702377 C83.1933621,69.6702377 78.2849336,74.5786663 78.2849336,80.5389009 L78.2849336,102.71448 C78.2849336,108.674714 83.1933621,113.583143 89.1535968,113.583143 L123.249645,113.583143 C129.20988,113.583143 134.118308,108.674714 134.118308,102.71448 L134.118308,80.5389009 Z M142.883359,97.8937018 C142.883359,96.6665946 141.831553,95.6147885 140.604446,95.6147885 C139.377339,95.6147885 138.325533,96.6665946 138.325533,97.8937018 C138.325533,99.1208089 139.377339,100.172615 140.604446,100.172615 C141.831553,100.172615 142.883359,99.2084594 142.883359,97.8937018 Z M142.883359,91.5828651 C142.883359,90.3557579 141.831553,89.3039518 140.604446,89.3039518 C139.377339,89.3039518 138.325533,90.3557579 138.325533,91.5828651 C138.325533,92.8099722 139.377339,93.8617783 140.604446,93.8617783 C141.831553,93.9494288 142.883359,92.8976227 142.883359,91.5828651 Z M142.883359,85.2720284 C142.883359,84.0449213 141.831553,82.9931152 140.604446,82.9931152 C139.377339,82.9931152 138.325533,84.0449213 138.325533,85.2720284 C138.325533,86.4991355 139.377339,87.5509416 140.604446,87.5509416 C141.831553,87.5509416 142.883359,86.4991355 142.883359,85.2720284 Z" id="Shape" fill="#CB2026" fill-rule="nonzero"></path>
            </g>
        </g>
    </g>
</svg>