<?xml version="1.0" encoding="UTF-8"?>
<svg width="221px" height="206px" viewBox="0 0 221 206" version="1.1" xmlns="http://www.w3.org/2000/svg" xmlns:xlink="http://www.w3.org/1999/xlink">
    <!-- Generator: Sketch 52.1 (67048) - http://www.bohemiancoding.com/sketch -->
    <title>Group 4</title>
    <desc>Created with Sketch.</desc>
    <defs>
        <rect id="path-1" x="0" y="0" width="220.339096" height="182.870426" rx="15"></rect>
        <linearGradient x1="41.3337236%" y1="14.8830308%" x2="103.767959%" y2="82.4935806%" id="linearGradient-3">
            <stop stop-color="#CA2026" offset="0%"></stop>
            <stop stop-color="#FF0036" offset="100%"></stop>
        </linearGradient>
    </defs>
    <g id="Page-1" stroke="none" stroke-width="1" fill="none" fill-rule="evenodd">
        <g id="1-copy" transform="translate(-738.000000, -536.000000)">
            <g id="Group-4" transform="translate(738.000000, 536.000000)">
                <mask id="mask-2" fill="white">
                    <use xlink:href="#path-1"></use>
                </mask>
                <use id="Rectangle-Copy-5" fill="#FFFFFF" fill-rule="nonzero" xlink:href="#path-1"></use>
                <circle id="Oval" fill="url(#linearGradient-3)" fill-rule="nonzero" opacity="0.100000001" mask="url(#mask-2)" cx="166" cy="177" r="154"></circle>
                <path d="M82.568,98.759 C76.391,98.759 71.366,93.734 71.366,87.557 C71.366,81.38 76.392,76.356 82.568,76.356 C88.744,76.356 93.769,81.38 93.769,87.557 C93.769,93.734 88.745,98.759 82.568,98.759 Z M82.568,81.069 C78.99,81.069 76.08,83.98 76.08,87.557 C76.08,91.134 78.99,94.045 82.568,94.045 C86.146,94.045 89.056,91.135 89.056,87.557 C89.056,83.979 86.146,81.069 82.568,81.069 Z M69.714,115.243 L69.714,116.212 L65,116.212 L65,115.243 C65,107.831 71.03,101.801 78.442,101.802 L86.693,101.802 C87.113,101.802 87.528,101.823 87.938,101.862 C89.114,101.975 90.034,103.006 90.034,104.208 C90.034,104.867 89.767,105.475 89.284,105.92 C88.788,106.376 88.11,106.605 87.427,106.546 C87.185,106.525 86.94,106.515 86.693,106.515 L78.442,106.515 C73.629,106.515 69.714,110.43 69.714,115.243 Z M90.87,116.211 L90.872,116.211 L90.872,110.408 C90.872,107.142 91.943,104.045 93.97,101.452 C96.764,97.878 100.949,95.828 105.452,95.828 L114.551,95.828 C117.385,95.828 120.141,96.653 122.521,98.214 C126.66,100.928 129.131,105.487 129.131,110.408 L129.131,116.211 L124.417,116.211 L124.417,110.408 C124.417,104.968 119.99,100.542 114.55,100.542 L105.451,100.542 C100.01,100.542 95.584,104.968 95.584,110.408 L95.584,116.211 L90.87,116.211 Z M141.558,101.801 C148.97,101.801 155,107.831 155,115.243 L155,116.212 L150.286,116.212 L150.286,115.243 C150.286,110.43 146.371,106.515 141.558,106.515 L133.307,106.515 C133.146,106.515 132.986,106.519 132.827,106.529 C132.183,106.566 131.564,106.343 131.091,105.898 C130.621,105.455 130.352,104.83 130.352,104.182 C130.352,102.927 131.348,101.89 132.619,101.82 C132.847,101.808 133.076,101.801 133.307,101.801 L141.558,101.801 Z M137.432,98.759 C131.256,98.759 126.23,93.734 126.23,87.557 C126.23,81.38 131.255,76.356 137.432,76.356 C143.609,76.356 148.634,81.38 148.634,87.557 C148.634,93.734 143.609,98.759 137.432,98.759 Z M137.432,81.069 C133.855,81.069 130.944,83.98 130.944,87.557 C130.944,91.134 133.855,94.045 137.432,94.045 C141.009,94.045 143.92,91.135 143.92,87.557 C143.92,83.979 141.01,81.069 137.432,81.069 Z M110,93.971 C102.23,93.971 95.909,87.649 95.909,79.88 C95.909,72.11 102.23,65.789 110,65.789 C117.77,65.789 124.091,72.11 124.091,79.88 C124.091,87.65 117.769,93.971 110,93.971 Z M110,70.502 C104.829,70.502 100.622,74.709 100.622,79.88 C100.622,85.05 104.829,89.257 110,89.257 C115.17,89.257 119.377,85.05 119.377,79.88 C119.377,74.709 115.17,70.502 110,70.502 Z" id="Combined-Shape" fill="#CB2026" fill-rule="nonzero" mask="url(#mask-2)"></path>
                <path d="M72.3281265,199.989258 C72.3281265,201.616219 71.9213923,202.880855 71.1079117,203.783203 C70.294431,204.685551 69.1425871,205.136719 67.6523453,205.136719 C66.1438742,205.136719 64.9851943,204.688969 64.176271,203.793457 C63.3673477,202.897945 62.9628921,201.625334 62.9628921,199.975586 C62.9628921,198.325838 63.3696263,197.058924 64.183107,196.174805 C64.9965876,195.290686 66.157546,194.848633 67.6660171,194.848633 C69.1517016,194.848633 70.3001277,195.297522 71.1113296,196.195312 C71.9225316,197.093103 72.3281265,198.357739 72.3281265,199.989258 Z M64.6992203,199.989258 C64.6992203,201.219733 64.9475902,202.152829 65.4443374,202.788574 C65.9410847,203.42432 66.67708,203.742188 67.6523453,203.742188 C68.6230532,203.742188 69.3556305,203.427738 69.8500992,202.798828 C70.3445678,202.169919 70.5917984,201.233405 70.5917984,199.989258 C70.5917984,198.76334 70.3468464,197.833662 69.8569351,197.200195 C69.3670238,196.566729 68.6367251,196.25 67.6660171,196.25 C66.6861945,196.25 65.9467813,196.566729 65.4477554,197.200195 C64.9487295,197.833662 64.6992203,198.76334 64.6992203,199.989258 Z M84.6419283,195.005859 L84.6419283,201.472656 C84.6419283,202.210941 84.4835639,202.856931 84.1668306,203.410645 C83.8500972,203.964358 83.392094,204.390461 82.7928072,204.688965 C82.1935203,204.987469 81.4768934,205.136719 80.6429048,205.136719 C79.4033153,205.136719 78.4394577,204.808597 77.7513033,204.152344 C77.0631488,203.49609 76.7190767,202.593756 76.7190767,201.445312 L76.7190767,195.005859 L78.3597017,195.005859 L78.3597017,201.329102 C78.3597017,202.153975 78.551106,202.762368 78.9339204,203.154297 C79.3167349,203.546226 79.9046196,203.742188 80.6975923,203.742188 C82.2379646,203.742188 83.0081392,202.933276 83.0081392,201.31543 L83.0081392,195.005859 L84.6419283,195.005859 Z M91.1656909,199.654297 L92.3004566,199.654297 C93.0615281,199.654297 93.6129549,199.513022 93.9547534,199.230469 C94.296552,198.947915 94.4674488,198.528649 94.4674488,197.972656 C94.4674488,197.407549 94.2828803,197.001954 93.9137378,196.755859 C93.5445953,196.509764 92.9886113,196.386719 92.2457691,196.386719 L91.1656909,196.386719 L91.1656909,199.654297 Z M91.1656909,201.007812 L91.1656909,205 L89.5319019,205 L89.5319019,195.005859 L92.3551441,195.005859 C93.6448641,195.005859 94.5996071,195.247393 95.2194019,195.730469 C95.8391966,196.213544 96.1490894,196.942703 96.1490894,197.917969 C96.1490894,199.162116 95.5019604,200.0485 94.2076831,200.577148 L97.0309253,205 L95.1715503,205 L92.7789722,201.007812 L91.1656909,201.007812 Z M112.477865,195.005859 L114.173177,195.005859 L110.673177,205 L108.950521,205 L105.464193,195.005859 L107.145834,195.005859 L109.230794,201.219727 C109.34017,201.515952 109.45638,201.897621 109.579427,202.364746 C109.702475,202.831871 109.782227,203.179361 109.818685,203.407227 C109.87793,203.060871 109.969075,202.659833 110.092123,202.204102 C110.21517,201.74837 110.315429,201.411134 110.392904,201.192383 L112.477865,195.005859 Z M117.825846,205 L117.825846,195.005859 L119.459635,195.005859 L119.459635,205 L117.825846,205 Z M130.08496,205 L124.43164,205 L124.43164,195.005859 L130.08496,195.005859 L130.08496,196.386719 L126.065429,196.386719 L126.065429,199.107422 L129.832031,199.107422 L129.832031,200.474609 L126.065429,200.474609 L126.065429,203.612305 L130.08496,203.612305 L130.08496,205 Z M143.800129,205 L142.022786,205 L140.327473,199.039062 C140.254556,198.779296 140.163411,198.404462 140.054036,197.914551 C139.94466,197.424639 139.87858,197.083985 139.855793,196.892578 C139.81022,197.184246 139.736165,197.562498 139.633625,198.027344 C139.531086,198.49219 139.445638,198.838541 139.377278,199.066406 L137.722981,205 L135.945637,205 L134.653645,199.996094 L133.341145,195.005859 L135.009114,195.005859 L136.437825,200.830078 C136.661133,201.764328 136.820637,202.589189 136.91634,203.304688 C136.966471,202.917316 137.041665,202.484377 137.141926,202.005859 C137.242187,201.527341 137.333332,201.139975 137.415364,200.84375 L139.042317,195.005859 L140.662434,195.005859 L142.330403,200.871094 C142.489909,201.413414 142.658527,202.224604 142.836262,203.304688 C142.904622,202.652992 143.068683,201.823573 143.32845,200.816406 L144.750325,195.005859 L146.404622,195.005859 L143.800129,205 Z M155.915689,202.286133 C155.915689,203.174809 155.594403,203.872068 154.951822,204.37793 C154.30924,204.883792 153.422856,205.136719 152.292642,205.136719 C151.162428,205.136719 150.237307,204.961265 149.517251,204.610352 L149.517251,203.06543 C149.972983,203.279623 150.45719,203.448242 150.969888,203.571289 C151.482586,203.694337 151.959958,203.755859 152.402017,203.755859 C153.049156,203.755859 153.526527,203.632814 153.834146,203.386719 C154.141765,203.140624 154.295572,202.810223 154.295572,202.395508 C154.295572,202.021808 154.154297,201.705079 153.871744,201.445312 C153.58919,201.185546 153.005863,200.877931 152.121744,200.522461 C151.210281,200.153318 150.567709,199.731773 150.194009,199.257812 C149.820309,198.783852 149.633462,198.214196 149.633462,197.548828 C149.633462,196.71484 149.929683,196.058596 150.522134,195.580078 C151.114585,195.10156 151.909825,194.862305 152.907876,194.862305 C153.864912,194.862305 154.817377,195.071938 155.765298,195.491211 L155.245767,196.824219 C154.357091,196.450519 153.56413,196.263672 152.866861,196.263672 C152.338212,196.263672 151.937175,196.378742 151.663736,196.608887 C151.390297,196.839031 151.25358,197.143227 151.25358,197.521484 C151.25358,197.781251 151.308267,198.003417 151.417642,198.187988 C151.527018,198.37256 151.707029,198.546874 151.957681,198.710938 C152.208333,198.875001 152.659501,199.09147 153.311197,199.360352 C154.044924,199.665692 154.582679,199.95052 154.924478,200.214844 C155.266277,200.479168 155.516925,200.777668 155.676431,201.110352 C155.835937,201.443036 155.915689,201.834959 155.915689,202.286133 Z" id="OURVIEWS" fill="#FFFFFF" fill-rule="nonzero"></path>
            </g>
        </g>
    </g>
</svg>