<?xml version="1.0" encoding="UTF-8"?>
<svg width="24px" height="22px" viewBox="0 0 24 22" version="1.1" xmlns="http://www.w3.org/2000/svg" xmlns:xlink="http://www.w3.org/1999/xlink">
    <!-- Generator: Sketch 52.1 (67048) - http://www.bohemiancoding.com/sketch -->
    <title>Shape</title>
    <desc>Created with Sketch.</desc>
    <g id="Music" stroke="none" stroke-width="1" fill="none" fill-rule="evenodd">
        <g id="2" transform="translate(-933.000000, -41.000000)" fill="#9E9E9E" fill-rule="nonzero">
            <path d="M938.668625,47.8125965 C937.540541,48.4103118 936.722679,49.2525471 936.186839,49.9317691 C935.989424,50.176289 935.566392,50.0132757 935.650999,49.6872492 C936.045828,47.8125965 937.427732,47.3235567 938.499412,47.24205 C938.837838,47.24205 938.950646,47.6495832 938.668625,47.8125965 Z M957,49.1982093 L957,57.0500154 C957,59.6038901 954.856639,61.6958938 952.20564,61.7502316 L952.20564,62.103427 C952.20564,62.5109602 951.867215,62.8369867 951.444183,62.8369867 L950.964747,62.8369867 C950.541716,62.8369867 950.20329,62.5109602 950.20329,62.103427 L950.20329,61.7502316 L939.40188,61.7502316 L939.40188,62.2664403 C939.40188,62.6739734 939.063455,63 938.640423,63 L938.160987,63 C937.737955,63 937.39953,62.6739734 937.39953,62.2664403 L937.39953,61.7230627 C934.945946,61.4785428 933,59.4680457 933,57.0500154 L933,49.1982093 C933,46.6171658 935.199765,44.4979932 937.878966,44.4979932 L941.094007,44.4979932 C941.658049,44.1176289 942.278496,43.8459401 942.927145,43.6829268 L941.26322,42.079963 C941.009401,41.835443 941.009401,41.4279098 941.26322,41.1833899 C941.517039,40.93887 941.940071,40.93887 942.19389,41.1833899 L944.393655,43.3025625 L946.621622,41.1833899 C946.875441,40.93887 947.298472,40.93887 947.552291,41.1833899 C947.80611,41.4279098 947.80611,41.835443 947.552291,42.079963 L945.888367,43.6829268 C946.565217,43.8459401 947.185664,44.1447978 947.721504,44.4979932 L952.121034,44.4979932 C954.800235,44.4979932 957,46.6171658 957,49.1982093 Z M952.826087,49.714418 C952.826087,47.8669342 951.246769,46.345477 949.329025,46.345477 L938.358402,46.345477 C936.440658,46.345477 934.86134,47.8669342 934.86134,49.714418 L934.86134,56.5881445 C934.86134,58.4356283 936.440658,59.9570855 938.358402,59.9570855 L949.329025,59.9570855 C951.246769,59.9570855 952.826087,58.4356283 952.826087,56.5881445 L952.826087,49.714418 Z M955.646298,55.0938561 C955.646298,54.7134918 955.307873,54.3874653 954.913043,54.3874653 C954.518214,54.3874653 954.179788,54.7134918 954.179788,55.0938561 C954.179788,55.4742204 954.518214,55.800247 954.913043,55.800247 C955.307873,55.800247 955.646298,55.5013893 955.646298,55.0938561 Z M955.646298,53.1376968 C955.646298,52.7573325 955.307873,52.431306 954.913043,52.431306 C954.518214,52.431306 954.179788,52.7573325 954.179788,53.1376968 C954.179788,53.5180611 954.518214,53.8440877 954.913043,53.8440877 C955.307873,53.8712566 955.646298,53.54523 955.646298,53.1376968 Z M955.646298,51.1815375 C955.646298,50.8011732 955.307873,50.4751467 954.913043,50.4751467 C954.518214,50.4751467 954.179788,50.8011732 954.179788,51.1815375 C954.179788,51.5619018 954.518214,51.8879284 954.913043,51.8879284 C955.307873,51.8879284 955.646298,51.5619018 955.646298,51.1815375 Z" id="Shape"></path>
        </g>
    </g>
</svg>